<?xml version="1.0" standalone="no"?>
<!DOCTYPE svg PUBLIC "-//W3C//DTD SVG 20010904//EN"
 "http://www.w3.org/TR/2001/REC-SVG-20010904/DTD/svg10.dtd">
<svg version="1.0" xmlns="http://www.w3.org/2000/svg"
 width="300.000000pt" height="70.000000pt" viewBox="0 0 300.000000 70.000000"
 preserveAspectRatio="xMidYMid meet">

<g transform="translate(0.000000,70.000000) scale(0.100000,-0.100000)"
fill="#000000" stroke="none">
<path d="M714 611 c-125 -32 -215 -158 -201 -283 15 -125 114 -207 250 -208
148 0 247 99 247 246 -1 151 -157 280 -296 245z m26 -182 c9 -15 8 -24 -1 -35
-18 -22 -53 -13 -57 15 -6 40 39 56 58 20z"/>
<path d="M70 380 l0 -191 28 3 27 3 5 123 5 122 95 -95 c52 -53 112 -110 133
-127 l37 -30 0 186 0 186 -25 0 -24 0 -3 -125 -3 -125 -109 108 c-60 59 -121
117 -137 130 l-29 24 0 -192z"/>
<path d="M2300 382 l0 -192 25 0 25 0 0 125 c0 69 2 125 5 125 3 0 18 -13 33
-29 15 -15 75 -75 135 -131 l107 -103 0 191 0 192 -30 0 -30 0 0 -125 0 -125
-27 28 c-16 16 -76 76 -135 132 l-108 103 0 -191z"/>
<path d="M1080 543 c6 -10 43 -96 84 -191 l73 -172 41 97 c23 54 59 140 81
191 l40 93 -31 -3 c-29 -3 -33 -9 -78 -121 -26 -64 -49 -119 -51 -121 -2 -2
-26 52 -54 120 -50 123 -50 124 -83 124 -28 0 -31 -2 -22 -17z"/>
<path d="M1530 508 c-13 -29 -50 -109 -82 -177 -32 -68 -58 -127 -58 -132 0
-5 11 -9 26 -9 21 0 29 8 46 50 l21 50 77 0 77 0 21 -50 c17 -42 25 -50 46
-50 15 0 26 3 26 8 0 13 -163 362 -170 362 -4 0 -17 -24 -30 -52z m80 -170 c0
-4 -22 -8 -50 -8 -27 0 -50 4 -50 9 0 5 12 35 26 66 l27 58 23 -58 c13 -32 24
-62 24 -67z"/>
<path d="M1780 375 l0 -185 95 0 c94 0 95 0 95 25 0 23 -3 24 -67 27 l-68 3
-3 158 -3 157 -24 0 -25 0 0 -185z"/>
<path d="M2020 375 l0 -186 103 3 c97 3 102 4 105 25 3 22 0 23 -72 23 l-76 0
0 65 0 65 76 0 c72 0 75 1 72 23 -3 20 -9 22 -75 25 l-73 3 0 44 0 44 73 3
c66 3 72 5 75 26 3 22 2 22 -102 22 l-106 0 0 -185z"/>
<path d="M2680 535 c0 -23 3 -25 50 -25 l50 0 0 -160 0 -160 25 0 25 0 0 160
0 160 50 0 c47 0 50 2 50 25 l0 25 -125 0 -125 0 0 -25z"/>
</g>
</svg>
